<svg id="Layer_1" data-name="Layer 1" xmlns="http://www.w3.org/2000/svg" xmlns:xlink="http://www.w3.org/1999/xlink" viewBox="0 0 197.151 65.859"><defs><style>.cls-1{fill:url(#linear-gradient);}.cls-2{fill:#2598fd;}</style><linearGradient id="linear-gradient" x1="3.848" y1="46.455" x2="63.537" y2="18.693" gradientUnits="userSpaceOnUse"><stop offset="0" stop-color="#5476f0"/><stop offset="1" stop-color="#219bfe"/></linearGradient></defs><path class="cls-1" d="M38.407,45.519a13.151,13.151,0,0,1-22.432-9.987,3.077,3.077,0,1,1,6.146.321,7,7,0,0,0,11.933,5.314L60.418,14.8a32.865,32.865,0,1,0,3.006,5.7Z"/><path class="cls-2" d="M86.617,45.8q-2.766,2.931-7.755,2.931T71.108,45.8q-2.766-2.932-2.764-8.3t2.764-8.3q2.764-2.931,7.754-2.93t7.755,2.93q2.764,2.931,2.765,8.3T86.617,45.8ZM82.542,32.034a4.79,4.79,0,0,0-7.36,0q-1.226,1.728-1.226,5.468t1.226,5.468a4.786,4.786,0,0,0,7.36,0q1.225-1.725,1.226-5.468T82.542,32.034Z"/><path class="cls-2" d="M97.323,48.729q-3.658,0-5.322-2.016t-1.663-6.84V29.062a2.417,2.417,0,0,1,2.37-2.371h.665a2.417,2.417,0,0,1,2.37,2.371V39.291a7.4,7.4,0,0,0,.79,4.033A3.025,3.025,0,0,0,99.2,44.446a4.474,4.474,0,0,0,3.18-1.455,4.347,4.347,0,0,0,1.476-3.118V29.062a2.417,2.417,0,0,1,2.37-2.371h.831a2.208,2.208,0,0,1,1.642.708,2.308,2.308,0,0,1,.687,1.663V45.943a2.3,2.3,0,0,1-.687,1.663,2.2,2.2,0,0,1-1.642.707h-.54a2.284,2.284,0,0,1-1.684-.687,2.431,2.431,0,0,1-.727-1.683l-.042-.291a.038.038,0,0,0-.043-.041.123.123,0,0,0-.083.041A8.715,8.715,0,0,1,97.323,48.729Z"/><path class="cls-2" d="M114.369,48.313a2.415,2.415,0,0,1-2.37-2.37V29.062a2.417,2.417,0,0,1,2.37-2.371h.831a2.417,2.417,0,0,1,2.37,2.371v1.747c0,.027.013.041.042.041.054,0,.083-.014.083-.041a9.313,9.313,0,0,1,3.159-2.723,11.41,11.41,0,0,1,4.283-1.31,1.757,1.757,0,0,1,1.5.56,2.113,2.113,0,0,1,.624,1.518,2.042,2.042,0,0,1-.624,1.5,2.372,2.372,0,0,1-1.5.707q-7.359.584-7.359,7.485v7.4a2.415,2.415,0,0,1-2.37,2.37Z"/><path class="cls-2" d="M131.116,48.313a2.415,2.415,0,0,1-2.37-2.37V29.062a2.417,2.417,0,0,1,2.37-2.371h.54a2.293,2.293,0,0,1,1.683.687,2.435,2.435,0,0,1,.727,1.684v.291a.038.038,0,0,0,.043.042.119.119,0,0,0,.083-.042,8.718,8.718,0,0,1,6.611-3.076q3.782,0,5.509,2.14t1.726,7.131V45.943a2.415,2.415,0,0,1-2.37,2.37h-.708a2.2,2.2,0,0,1-1.641-.707,2.305,2.305,0,0,1-.687-1.663V35.964q0-3.118-.81-4.261a3.306,3.306,0,0,0-2.89-1.144,5.027,5.027,0,0,0-4.615,4.573V45.943a2.415,2.415,0,0,1-2.37,2.37Z"/><path class="cls-2" d="M156.239,48.729a6.338,6.338,0,0,1-4.678-1.85,6.5,6.5,0,0,1-1.851-4.8,6.518,6.518,0,0,1,2.766-5.613q2.764-2,8.461-2h1.7a.331.331,0,0,0,.375-.374V33.76a3.356,3.356,0,0,0-.915-2.682,5.155,5.155,0,0,0-3.243-.768,25.1,25.1,0,0,0-5.905.873,1.49,1.49,0,0,1-1.372-.27,1.522,1.522,0,0,1-.623-1.269,2.79,2.79,0,0,1,.582-1.726,2.345,2.345,0,0,1,1.5-.934,27.251,27.251,0,0,1,5.947-.707q5.322,0,7.442,1.912t2.12,6.694v11.06a2.307,2.307,0,0,1-.685,1.663,2.207,2.207,0,0,1-1.643.707h-.456a2.351,2.351,0,0,1-1.706-.687,2.392,2.392,0,0,1-.748-1.683v-.582a.037.037,0,0,0-.042-.041c-.056,0-.083.014-.083.041A8.223,8.223,0,0,1,156.239,48.729Zm4.7-10.81q-5.946,0-5.947,3.659a3.058,3.058,0,0,0,.77,2.162,2.568,2.568,0,0,0,1.976.831,5.138,5.138,0,0,0,3.825-1.475,5.525,5.525,0,0,0,1.455-4.054v-.75a.331.331,0,0,0-.375-.373Z"/><path class="cls-2" d="M174.572,48.313a2.415,2.415,0,0,1-2.369-2.37V19.5a2.415,2.415,0,0,1,2.369-2.37h1.082a2.41,2.41,0,0,1,2.369,2.37V45.943a2.41,2.41,0,0,1-2.369,2.37Z"/><path class="cls-2" d="M184.259,48.313a2.415,2.415,0,0,1-2.368-2.37V29.062a2.417,2.417,0,0,1,2.368-2.371h.833a2.412,2.412,0,0,1,2.368,2.371v1.747c0,.027.014.041.044.041.054,0,.081-.014.081-.041a9.339,9.339,0,0,1,3.161-2.723,11.414,11.414,0,0,1,4.284-1.31,1.757,1.757,0,0,1,1.5.56,2.115,2.115,0,0,1,.626,1.518,2.044,2.044,0,0,1-.626,1.5,2.374,2.374,0,0,1-1.5.707q-7.361.584-7.36,7.485v7.4a2.415,2.415,0,0,1-2.372,2.37Z"/></svg>