<svg id="Categories" xmlns="http://www.w3.org/2000/svg" viewBox="0 0 220 220"><defs><style>.cls-1{fill:#2598fd;}</style></defs><path class="cls-1" d="M86.65,19a7.88,7.88,0,0,1,7.88,7.88v59.8a7.88,7.88,0,0,1-7.88,7.88H26.85A7.88,7.88,0,0,1,19,86.65V26.85A7.88,7.88,0,0,1,26.85,19h59.8m0-8.12H26.85a16,16,0,0,0-16,16v59.8a16,16,0,0,0,16,16h59.8a16,16,0,0,0,16-16V26.85a16,16,0,0,0-16-16Z"/><path class="cls-1" d="M86.65,125.47a7.88,7.88,0,0,1,7.88,7.88v59.8A7.88,7.88,0,0,1,86.65,201H26.85A7.88,7.88,0,0,1,19,193.15v-59.8a7.88,7.88,0,0,1,7.88-7.88h59.8m0-8.11H26.85a16,16,0,0,0-16,16v59.8a16,16,0,0,0,16,16h59.8a16,16,0,0,0,16-16v-59.8a16,16,0,0,0-16-16Z"/><path class="cls-1" d="M193.15,19A7.88,7.88,0,0,1,201,26.85v59.8a7.88,7.88,0,0,1-7.88,7.88h-59.8a7.88,7.88,0,0,1-7.88-7.88V26.85A7.88,7.88,0,0,1,133.35,19h59.8m0-8.12h-59.8a16,16,0,0,0-16,16v59.8a16,16,0,0,0,16,16h59.8a16,16,0,0,0,16-16V26.85a16,16,0,0,0-16-16Z"/><path class="cls-1" d="M193.15,125.47a7.88,7.88,0,0,1,7.88,7.88v59.8a7.88,7.88,0,0,1-7.88,7.88h-59.8a7.88,7.88,0,0,1-7.88-7.88v-59.8a7.88,7.88,0,0,1,7.88-7.88h59.8m0-8.11h-59.8a16,16,0,0,0-16,16v59.8a16,16,0,0,0,16,16h59.8a16,16,0,0,0,16-16v-59.8a16,16,0,0,0-16-16Z"/></svg>