<?xml version="1.0" encoding="utf-8"?>
<!-- Generator: Adobe Illustrator 25.2.0, SVG Export Plug-In . SVG Version: 6.00 Build 0)  -->
<svg version="1.1" id="Layer_7" xmlns="http://www.w3.org/2000/svg" xmlns:xlink="http://www.w3.org/1999/xlink" x="0px" y="0px"
	 viewBox="0 0 220 220" style="enable-background:new 0 0 220 220;" xml:space="preserve">
<style type="text/css">
	.st0{fill:#1E1E1E;}
</style>
<path class="st0" d="M212.3,43.9l-26-27.9c-6.1-6.5-16.3-6.9-22.9-0.8l-6.4,5.9c-6.5,6.1-6.9,16.4-0.8,22.9l26,27.9
	c6.1,6.5,16.3,6.9,22.9,0.8l6.4-5.9C218,60.7,218.4,50.5,212.3,43.9C212.3,43.9,212.3,43.9,212.3,43.9z M205.4,60.2l-6.4,5.9
	c-2.9,2.7-7.4,2.5-10.2-0.4l-26-28c-2.7-2.9-2.5-7.5,0.4-10.2l6.4-5.9c2.9-2.7,7.4-2.5,10.2,0.4l26,28
	C208.4,53,208.2,57.5,205.4,60.2L205.4,60.2z"/>
<path class="st0" d="M174.7,78.9l-13-14l-13-14c-6.1-6.5-16.3-6.9-22.9-0.8L8.5,159.4c-3.3,3.1-5.2,7.4-5.2,11.9v28.4
	c0,8.9,7.2,16.2,16.2,16.2c0,0,0,0,0,0h25.5c4.1,0,8-1.6,11-4.3l117.8-109.7C180.4,95.7,180.8,85.5,174.7,78.9
	C174.7,78.9,174.7,78.9,174.7,78.9z M167.8,95.2L50,204.9c-1.3,1.2-3.1,1.9-4.9,1.9H19.5c-4,0-7.2-3.2-7.2-7.2v-28.4
	c0-2,0.8-3.9,2.3-5.3L132,56.8c1.3-1.2,3.1-1.9,4.9-1.9c2,0,3.9,0.8,5.3,2.3l13,14l13,14C170.9,88,170.7,92.6,167.8,95.2L167.8,95.2
	z"/>
</svg>
