<svg id="Layer_1" data-name="Layer 1" xmlns="http://www.w3.org/2000/svg" viewBox="0 0 197.03 65.74"><defs><style>.cls-1{fill:#fff;}</style></defs><path class="cls-1" d="M38.41,45.52A13.15,13.15,0,0,1,16,35.53a3.07,3.07,0,0,1,6.14.32h0a7,7,0,0,0,11.93,5.32L60.42,14.8a32.89,32.89,0,1,0,3,5.7Z" transform="translate(-0.12 -0.04)"/><path class="cls-1" d="M86.62,45.8a10.18,10.18,0,0,1-7.76,2.93c-3.32,0-5.91-1-7.75-2.93s-2.77-4.72-2.77-8.3.93-6.35,2.77-8.3,4.43-2.93,7.75-2.93a10.18,10.18,0,0,1,7.76,2.93q2.76,2.93,2.76,8.3T86.62,45.8ZM82.54,32a4.79,4.79,0,0,0-6.74-.61,5.11,5.11,0,0,0-.62.61C74.36,33.19,74,35,74,37.5s.4,4.32,1.22,5.47a4.79,4.79,0,0,0,6.74.62,4.54,4.54,0,0,0,.62-.62q1.23-1.72,1.23-5.47C83.77,35,83.36,33.18,82.54,32Z" transform="translate(-0.12 -0.04)"/><path class="cls-1" d="M97.32,48.73q-3.66,0-5.32-2t-1.66-6.84V29.06a2.41,2.41,0,0,1,2.37-2.37h.66a2.41,2.41,0,0,1,2.37,2.37V39.29a7.4,7.4,0,0,0,.79,4,3,3,0,0,0,2.67,1.13A4.5,4.5,0,0,0,102.38,43a4.35,4.35,0,0,0,1.48-3.12V29.06a2.41,2.41,0,0,1,2.37-2.37h.83a2.18,2.18,0,0,1,1.64.71,2.36,2.36,0,0,1,.69,1.66V45.94a2.36,2.36,0,0,1-.69,1.67,2.21,2.21,0,0,1-1.64.7h-.54a2.28,2.28,0,0,1-1.69-.68,2.44,2.44,0,0,1-.72-1.69l0-.29s0,0,0,0h0a.12.12,0,0,0-.08,0A8.71,8.71,0,0,1,97.32,48.73Z" transform="translate(-0.12 -0.04)"/><path class="cls-1" d="M114.37,48.31A2.41,2.41,0,0,1,112,45.94V29.06a2.41,2.41,0,0,1,2.37-2.37h.83a2.41,2.41,0,0,1,2.37,2.37v1.75s0,0,0,0,.09,0,.09,0a9.16,9.16,0,0,1,3.15-2.72,11.39,11.39,0,0,1,4.29-1.31,1.73,1.73,0,0,1,1.5.56,2.08,2.08,0,0,1,.62,1.51,2,2,0,0,1-.62,1.5,2.38,2.38,0,0,1-1.5.71q-7.36.59-7.36,7.49V46a2.43,2.43,0,0,1-2.37,2.37Z" transform="translate(-0.12 -0.04)"/><path class="cls-1" d="M131.12,48.31a2.41,2.41,0,0,1-2.37-2.37V29.06a2.41,2.41,0,0,1,2.37-2.37h.54a2.3,2.3,0,0,1,1.68.69,2.47,2.47,0,0,1,.73,1.68v.29s0,0,0,0h0a.14.14,0,0,0,.08,0,8.73,8.73,0,0,1,6.61-3.07q3.78,0,5.51,2.14T148,35.55V45.94a2.41,2.41,0,0,1-2.37,2.37H145a2.21,2.21,0,0,1-1.64-.7,2.32,2.32,0,0,1-.69-1.67V36q0-3.1-.81-4.26a3.3,3.3,0,0,0-2.89-1.14,5,5,0,0,0-4.61,4.57V45.94A2.41,2.41,0,0,1,132,48.31Z" transform="translate(-0.12 -0.04)"/><path class="cls-1" d="M156.24,48.73a6.38,6.38,0,0,1-4.68-1.85,6.5,6.5,0,0,1-1.85-4.8,6.49,6.49,0,0,1,2.77-5.61c1.84-1.34,4.66-2,8.46-2h1.7a.33.33,0,0,0,.37-.28.17.17,0,0,0,0-.1v-.33a3.34,3.34,0,0,0-.91-2.68,5.17,5.17,0,0,0-3.25-.77,25.65,25.65,0,0,0-5.9.87,1.45,1.45,0,0,1-1.37-.27,1.51,1.51,0,0,1-.63-1.27,2.76,2.76,0,0,1,.59-1.72A2.34,2.34,0,0,1,153,27a27,27,0,0,1,5.94-.7c3.55,0,6,.63,7.45,1.91s2.12,3.5,2.12,6.69V45.94a2.36,2.36,0,0,1-.69,1.67,2.21,2.21,0,0,1-1.64.7h-.46a2.3,2.3,0,0,1-1.7-.68,2.37,2.37,0,0,1-.75-1.69v-.58a0,0,0,0,0,0,0h0c-.06,0-.09,0-.09,0A8.21,8.21,0,0,1,156.24,48.73Zm4.7-10.81q-6,0-5.95,3.66a3.06,3.06,0,0,0,.77,2.16,2.57,2.57,0,0,0,2,.83,5.13,5.13,0,0,0,3.82-1.47A5.54,5.54,0,0,0,163,39v-.75a.33.33,0,0,0-.28-.37.17.17,0,0,0-.1,0Z" transform="translate(-0.12 -0.04)"/><path class="cls-1" d="M174.57,48.31a2.41,2.41,0,0,1-2.37-2.37V19.5a2.41,2.41,0,0,1,2.37-2.37h1.08A2.41,2.41,0,0,1,178,19.5V45.94a2.41,2.41,0,0,1-2.37,2.37Z" transform="translate(-0.12 -0.04)"/><path class="cls-1" d="M184.26,48.31a2.41,2.41,0,0,1-2.37-2.37V29.06a2.42,2.42,0,0,1,2.37-2.37h.83a2.41,2.41,0,0,1,2.37,2.37v1.75s0,0,0,0,.08,0,.08,0a9.22,9.22,0,0,1,3.17-2.72A11.28,11.28,0,0,1,195,26.78a1.73,1.73,0,0,1,1.5.56,2.13,2.13,0,0,1,.63,1.51,2.05,2.05,0,0,1-.63,1.5,2.38,2.38,0,0,1-1.5.71q-7.36.59-7.36,7.49V46a2.41,2.41,0,0,1-2.37,2.37Z" transform="translate(-0.12 -0.04)"/></svg>