<svg xmlns="http://www.w3.org/2000/svg" xmlns:xlink="http://www.w3.org/1999/xlink" viewBox="0 0 300 220"><defs><style>.cls-1{fill:url(#linear-gradient);}</style><linearGradient id="linear-gradient" x1="23.42" y1="197.53" x2="272.79" y2="25.88" gradientUnits="userSpaceOnUse"><stop offset="0" stop-color="#5476f0"/><stop offset="1" stop-color="#219bfe"/></linearGradient></defs><g id="Layer_6" data-name="Layer 6"><path class="cls-1" d="M214.58.5H85.13A85.28,85.28,0,0,0-.15,85.77v49.46A85.28,85.28,0,0,0,85.13,220.5H214.58a85.27,85.27,0,0,0,85.27-85.27V85.77A85.27,85.27,0,0,0,214.58.5ZM202.85,114A11.55,11.55,0,0,1,191.3,125.5H171.39a4.53,4.53,0,0,0-4.54,4.53V150A11.55,11.55,0,0,1,155.3,161.5h-9.89A11.56,11.56,0,0,1,133.85,150V130a4.53,4.53,0,0,0-4.53-4.53H108.41A11.56,11.56,0,0,1,96.85,114v-7.9A11.56,11.56,0,0,1,108.41,94.5h20.91A4.53,4.53,0,0,0,133.85,90V70.05A11.56,11.56,0,0,1,145.41,58.5h9.89a11.55,11.55,0,0,1,11.55,11.55V90a4.53,4.53,0,0,0,4.54,4.53H191.3a11.55,11.55,0,0,1,11.55,11.55Z"/></g></svg>