<svg id="Layer_5" data-name="Layer 5" xmlns="http://www.w3.org/2000/svg" viewBox="0 0 220 220"><defs><style>.cls-1{fill:#2598fd;}</style></defs><path class="cls-1" d="M110,16.94A45.41,45.41,0,1,1,64.59,62.35,45.46,45.46,0,0,1,110,16.94m0-9a54.41,54.41,0,1,0,54.41,54.41A54.41,54.41,0,0,0,110,7.94Z"/><path class="cls-1" d="M110,132.9A117.3,117.3,0,0,1,169.68,149a108,108,0,0,1,40.43,41.68,6.93,6.93,0,0,1-.2,7.11,11.8,11.8,0,0,1-10.3,5.27H20.39a11.8,11.8,0,0,1-10.3-5.27,6.93,6.93,0,0,1-.2-7.11A108,108,0,0,1,50.32,149,117.3,117.3,0,0,1,110,132.9m0-9c-47.22,0-88.12,25.44-108,62.54-6.38,11.89,3.6,25.63,18.43,25.63H199.61c14.83,0,24.81-13.74,18.43-25.63-19.92-37.1-60.82-62.54-108-62.54Z"/></svg>