<svg id="Layer_3" data-name="Layer 3" xmlns="http://www.w3.org/2000/svg" viewBox="0 0 218.08 220"><defs><style>.cls-1{fill:#2598fd;}.cls-2,.cls-3{fill:none;stroke:#2598fd;}.cls-2{stroke-miterlimit:10;stroke-width:8.68px;}.cls-3{stroke-linecap:round;stroke-linejoin:round;stroke-width:9px;}</style></defs><path class="cls-1" d="M167.37,9a9.44,9.44,0,0,1,9.43,9.43V34.7a2.41,2.41,0,0,1-2.4,2.4H45.6a2.41,2.41,0,0,1-2.4-2.4V18.43A9.44,9.44,0,0,1,52.63,9H167.37m0-9H52.63A18.43,18.43,0,0,0,34.2,18.43V34.7A11.41,11.41,0,0,0,45.6,46.1H174.4a11.41,11.41,0,0,0,11.4-11.4V18.43A18.43,18.43,0,0,0,167.37,0Z" transform="translate(-0.96 0)"/><path class="cls-2" d="M177.76,20.92h7.4c16.32,0,29.54,13.56,29.54,30.29V187.77c0,15.4-12.17,27.89-27.19,27.89h-155c-15,0-27.19-12.49-27.19-27.89V51.21c0-16.73,13.22-30.29,29.54-30.29h6.6" transform="translate(-0.96 0)"/><path class="cls-1" d="M66.39,69.22A7.64,7.64,0,0,1,74,76.86v24.55A7.64,7.64,0,0,1,66.39,109H41.84a7.64,7.64,0,0,1-7.64-7.63V76.86a7.64,7.64,0,0,1,7.64-7.64H66.39m0-8.81H41.84A16.47,16.47,0,0,0,25.38,76.86v24.55a16.47,16.47,0,0,0,16.46,16.45H66.39a16.47,16.47,0,0,0,16.45-16.45V76.86A16.47,16.47,0,0,0,66.39,60.41Z" transform="translate(-0.96 0)"/><line class="cls-3" x1="96.23" y1="79.07" x2="192.23" y2="79.07"/><line class="cls-3" x1="96.23" y1="99.2" x2="163.97" y2="99.2"/><path class="cls-1" d="M66.39,142.88A7.64,7.64,0,0,1,74,150.52v24.55a7.64,7.64,0,0,1-7.63,7.63H41.84a7.64,7.64,0,0,1-7.64-7.63V150.52a7.64,7.64,0,0,1,7.64-7.64H66.39m0-8.82H41.84a16.47,16.47,0,0,0-16.46,16.46v24.55a16.47,16.47,0,0,0,16.46,16.45H66.39a16.47,16.47,0,0,0,16.45-16.45V150.52a16.47,16.47,0,0,0-16.45-16.46Z" transform="translate(-0.96 0)"/><line class="cls-3" x1="96.23" y1="152.73" x2="192.23" y2="152.73"/><line class="cls-3" x1="96.23" y1="172.85" x2="163.97" y2="172.85"/></svg>