<svg id="Layer_3" data-name="Layer 3" xmlns="http://www.w3.org/2000/svg" viewBox="0 0 220 220"><defs><style>.cls-1{fill:#2598fd;}</style></defs><path class="cls-1" d="M174.4,46.1H45.6A11.41,11.41,0,0,1,34.2,34.7V18.43A18.43,18.43,0,0,1,52.63,0H167.37A18.43,18.43,0,0,1,185.8,18.43V34.7A11.41,11.41,0,0,1,174.4,46.1Z"/><path class="cls-1" d="M194,29.36V40.87a13,13,0,0,1-13,13H39a13,13,0,0,1-13-13V29.36A6,6,0,0,0,17.52,24,31,31,0,0,0,0,51.89v139.6A28.54,28.54,0,0,0,28.57,220H191.43A28.54,28.54,0,0,0,220,191.49V51.89A31,31,0,0,0,202.48,24,6,6,0,0,0,194,29.36ZM74,175.07a7.64,7.64,0,0,1-7.63,7.63H41.84a7.64,7.64,0,0,1-7.64-7.63V150.52a7.64,7.64,0,0,1,7.64-7.64H66.39A7.64,7.64,0,0,1,74,150.52Zm0-73.66A7.64,7.64,0,0,1,66.39,109H41.84a7.64,7.64,0,0,1-7.64-7.63V76.86a7.64,7.64,0,0,1,7.64-7.64H66.39A7.64,7.64,0,0,1,74,76.86Zm90.92,75.94H97.39a4.64,4.64,0,0,1-4.68-4,4.51,4.51,0,0,1,4.48-5h67.55a4.63,4.63,0,0,1,4.67,4.06A4.49,4.49,0,0,1,164.94,177.35Zm28.25-20.12H97.39a4.64,4.64,0,0,1-4.68-4.06,4.5,4.5,0,0,1,4.48-4.94H193a4.62,4.62,0,0,1,4.67,4.05A4.5,4.5,0,0,1,193.19,157.23ZM92.71,98.75a4.64,4.64,0,0,1,4.68-4h67.35a4.63,4.63,0,0,1,4.67,4,4.5,4.5,0,0,1-4.47,5H97.19A4.51,4.51,0,0,1,92.71,98.75ZM193.19,83.57H97.39a4.64,4.64,0,0,1-4.68-4.06,4.51,4.51,0,0,1,4.48-4.94H193a4.63,4.63,0,0,1,4.67,4.06A4.5,4.5,0,0,1,193.19,83.57Z"/></svg>