<svg id="Tasks" xmlns="http://www.w3.org/2000/svg" viewBox="0 0 220 212"><defs><style>.cls-1{fill:#2598fd;}</style></defs><path class="cls-1" d="M174.6,8h-4.92A10.18,10.18,0,0,0,159.5,18.18V28.66a5.45,5.45,0,0,0,5.44,5.44h14.4a5.44,5.44,0,0,0,5.44-5.44V18.18A10.18,10.18,0,0,0,174.6,8Z" transform="translate(0 -8)"/><path class="cls-1" d="M50.32,8H45.4A10.18,10.18,0,0,0,35.22,18.18V28.66a5.44,5.44,0,0,0,5.44,5.44h14.4a5.45,5.45,0,0,0,5.44-5.44V18.18A10.18,10.18,0,0,0,50.32,8Z" transform="translate(0 -8)"/><path class="cls-1" d="M198.31,36.37a5.53,5.53,0,0,0-6.68,2.55A8.3,8.3,0,0,1,184.48,43H159.8a8.31,8.31,0,0,1-8.3-8.3h0a.6.6,0,0,0-.6-.6H69.1a.6.6,0,0,0-.6.6h0A8.31,8.31,0,0,1,60.2,43H35.52a8.3,8.3,0,0,1-7.15-4.08,5.53,5.53,0,0,0-6.68-2.55A34,34,0,0,0,0,68H0a3.6,3.6,0,0,0,3.59,3.6H216.41A3.6,3.6,0,0,0,220,68h0A34,34,0,0,0,198.31,36.37Z" transform="translate(0 -8)"/><path class="cls-1" d="M0,186.06A33.93,33.93,0,0,0,33.94,220H186.06A33.93,33.93,0,0,0,220,186.06V80.63H0Zm61.32-38.15,9.17-8.43a6.35,6.35,0,0,1,9,.37l11.41,12.41a3,3,0,0,0,4.25.18l48.87-45a6.35,6.35,0,0,1,9,.37l6.07,6.6a6.35,6.35,0,0,1-.37,9l-67.38,62a3,3,0,0,1-4.24-.18L61,156.89A6.35,6.35,0,0,1,61.32,147.91Z" transform="translate(0 -8)"/></svg>