<svg id="Today" xmlns="http://www.w3.org/2000/svg" viewBox="0 0 220 220"><defs><style>.cls-1{fill:#2598fd;}.cls-2,.cls-3{fill:none;stroke:#2598fd;stroke-width:9px;}.cls-2{stroke-miterlimit:10;}.cls-3{stroke-linecap:round;stroke-linejoin:round;}</style></defs><g id="TasksInactive"><path class="cls-1" d="M186.06,43.1A25,25,0,0,1,211,68v118A25,25,0,0,1,186.06,211H33.94A25,25,0,0,1,9,186.06V68A25,25,0,0,1,33.94,43.1H186.06m0-9H33.94A33.93,33.93,0,0,0,0,68v118A33.93,33.93,0,0,0,33.94,220H186.06A33.93,33.93,0,0,0,220,186.06V68A33.93,33.93,0,0,0,186.06,34.1Z"/><path class="cls-1" d="M174.6,9a9.19,9.19,0,0,1,9.18,9.18V34H160.5V18.18A9.19,9.19,0,0,1,169.68,9h4.92M50.32,9a9.19,9.19,0,0,1,9.18,9.18V34H36.22V18.18A9.19,9.19,0,0,1,45.4,9h4.92M174.6,0h-4.92A18.18,18.18,0,0,0,151.5,18.18V34.7a8.31,8.31,0,0,0,8.3,8.3h24.68a8.3,8.3,0,0,0,8.3-8.3V18.18A18.18,18.18,0,0,0,174.6,0ZM50.32,0H45.4A18.18,18.18,0,0,0,27.22,18.18V34.7a8.3,8.3,0,0,0,8.3,8.3H60.2a8.31,8.31,0,0,0,8.3-8.3V18.18A18.18,18.18,0,0,0,50.32,0Z"/><line class="cls-2" y1="76.13" x2="220" y2="76.13"/><path class="cls-3" d="M61,156.89a6.35,6.35,0,0,1,.37-9l9.17-8.43a6.35,6.35,0,0,1,9,.37l11.41,12.41a3,3,0,0,0,4.25.18l48.87-45a6.35,6.35,0,0,1,9,.37l6.07,6.6a6.35,6.35,0,0,1-.37,9l-67.38,62a3,3,0,0,1-4.24-.18Z"/></g></svg>